<?xml version="1.0" encoding="iso-8859-1"?>
<!-- Uploaded to: SVG Repo, www.svgrepo.com, Generator: SVG Repo Mixer Tools -->
<svg height="800px" width="800px" version="1.1" id="Layer_1" xmlns="http://www.w3.org/2000/svg" xmlns:xlink="http://www.w3.org/1999/xlink" 
	 viewBox="0 0 511.998 511.998" xml:space="preserve">
<path style="fill:#C7CFE2;" d="M204.997,413.869v38.408c0,28.167,22.834,51.002,51.001,51.002l0,0c28.167,0,51-22.834,51-51.002
	v-38.408H204.997z"/>
<path style="opacity:0.1;enable-background:new    ;" d="M239.876,452.278v-38.408h-34.878v38.408
	c0,28.167,22.834,51.002,51.001,51.002c6.126,0,11.998-1.082,17.439-3.062C253.86,493.092,239.876,474.32,239.876,452.278z"/>
<path style="fill:#FFD782;" d="M258.199,8.733c-87.864-1.189-161.42,71.333-161.42,159.206c0,35.023,11.317,67.398,30.481,93.687
	c30.755,51.207,45.363,75.064,49.774,106.324c1.89,13.401,13.342,23.378,26.876,23.378h104.179c13.535,0,24.986-9.976,26.876-23.378
	c4.41-31.258,19.018-55.116,49.774-106.324c19.165-26.289,30.481-58.663,30.481-93.687C415.219,80.738,345.12,9.91,258.199,8.733z"
	/>
<path style="opacity:0.1;enable-background:new    ;" d="M223.537,367.948c-4.41-31.258-19.018-55.116-49.774-106.324
	c-19.165-26.289-30.481-58.663-30.481-93.687c0-79.3,59.907-146.09,136.171-157.494c-6.95-1.027-14.043-1.614-21.255-1.711
	c-87.864-1.189-161.42,71.333-161.42,159.206c0,35.023,11.317,67.398,30.481,93.687c30.755,51.207,45.363,75.064,49.774,106.324
	c1.89,13.401,13.342,23.378,26.876,23.378h46.505C236.879,391.326,225.428,381.35,223.537,367.948z"/>
<path style="fill:#B4BBCC;" d="M327.908,413.869l-71.909-22.543l-71.909,22.543c-12.45,0-22.543,10.093-22.543,22.543
	c0,12.45,10.093,22.543,22.543,22.543h143.818c12.45,0,22.543-10.093,22.543-22.543
	C350.451,423.962,340.357,413.869,327.908,413.869z"/>
<path style="opacity:0.1;enable-background:new    ;" d="M208.051,436.413c0-12.45,10.093-22.543,22.543-22.543l48.657-15.254
	l-23.252-7.29l-71.909,22.543c-12.45,0-22.543,10.093-22.543,22.543c0,12.45,10.093,22.543,22.543,22.543h46.505
	C218.144,458.957,208.051,448.863,208.051,436.413z"/>
<path style="fill:#C7CFE2;" d="M327.908,368.783H184.09c-12.45,0-22.543,10.093-22.543,22.543l0,0
	c0,12.45,10.093,22.543,22.543,22.543h143.818c12.45,0,22.543-10.093,22.543-22.543l0,0
	C350.451,378.876,340.357,368.783,327.908,368.783z"/>
<path style="opacity:0.1;enable-background:new    ;" d="M208.051,391.326c0-12.45,10.093-22.543,22.543-22.543H184.09
	c-12.45,0-22.543,10.093-22.543,22.543s10.093,22.543,22.543,22.543h46.505C218.144,413.869,208.051,403.777,208.051,391.326z"/>
<path d="M377.263,257.136l-1.679,2.796c-7.916,13.178-14.754,24.56-20.606,34.752c-2.398,4.176-0.957,9.506,3.219,11.904
	c1.368,0.786,2.861,1.16,4.334,1.16c3.02,0,5.957-1.572,7.57-4.38c5.767-10.043,12.563-21.356,20.432-34.455l1.482-2.468
	c20.886-28.79,31.923-62.842,31.923-98.506c0-44.455-17.199-86.357-48.43-117.987c-31.2-31.601-72.82-49.336-117.192-49.937
	c-22.362-0.301-44.252,3.867-65.032,12.393c-4.455,1.828-6.585,6.921-4.756,11.377c1.828,4.455,6.921,6.586,11.377,4.756
	c18.594-7.629,38.177-11.375,58.175-11.089c39.762,0.538,77.057,16.431,105.019,44.751c27.987,28.346,43.401,65.897,43.401,105.735
	c0,32.078-9.961,62.698-28.807,88.551C377.539,256.698,377.396,256.914,377.263,257.136z"/>
<path d="M121.513,268.993c27.87,46.397,41.368,68.88,46.17,95.737c-8.907,5.515-14.856,15.372-14.856,26.596
	c0,8.852,3.704,16.85,9.637,22.543c-5.933,5.693-9.637,13.691-9.637,22.543c0,17.238,14.025,31.263,31.263,31.263h14.221
	c6.861,25.737,30.427,44.322,57.687,44.322s50.826-18.586,57.687-44.322h14.222c17.238,0,31.263-14.025,31.263-31.263
	c0-8.852-3.704-16.85-9.637-22.543c5.933-5.693,9.637-13.691,9.637-22.543c0-11.226-5.95-21.085-14.861-26.6
	c1.76-9.854,4.705-19.208,9.336-29.743c1.938-4.409-0.065-9.553-4.474-11.491c-4.407-1.937-9.553,0.065-11.491,4.474
	c-4.892,11.129-8.206,21.484-10.243,32.098h-79.01c-4.816,0-8.72,3.904-8.72,8.72s3.904,8.72,8.72,8.72h79.481
	c0.432,0,0.858,0.026,1.281,0.065c0.11,0.01,0.22,0.024,0.33,0.037c0.339,0.04,0.674,0.09,1.006,0.153
	c0.085,0.016,0.171,0.03,0.256,0.049c6.248,1.327,10.952,6.882,10.952,13.519c0,7.622-6.201,13.824-13.824,13.824H184.09
	c-7.622,0-13.824-6.201-13.824-13.824c0-6.637,4.704-12.194,10.953-13.519c0.084-0.017,0.169-0.031,0.252-0.048
	c0.333-0.064,0.669-0.115,1.008-0.155c0.109-0.013,0.22-0.027,0.329-0.037c0.422-0.04,0.849-0.065,1.281-0.065h29.914
	c4.816,0,8.72-3.904,8.72-8.72s-3.904-8.72-8.72-8.72H184.56c-5.615-29.327-20.45-54.026-48.099-100.051l-1.728-2.876
	c-0.134-0.222-0.277-0.437-0.429-0.648c-18.846-25.853-28.807-56.474-28.807-88.551c0-48.394,24.046-94.315,64.324-122.836
	c3.93-2.783,4.86-8.226,2.076-12.155c-2.784-3.93-8.227-4.861-12.155-2.076c-44.886,31.786-71.683,83.027-71.683,137.069
	c0,35.662,11.037,69.715,31.923,98.506L121.513,268.993z M255.999,494.56c-17.678,0-33.165-11.033-39.374-26.883h78.749
	C289.164,483.526,273.675,494.56,255.999,494.56z M184.09,422.589h143.818c7.622,0,13.824,6.201,13.824,13.824
	c0,7.622-6.201,13.824-13.824,13.824H184.09c-7.622,0-13.824-6.201-13.824-13.824C170.266,428.79,176.468,422.589,184.09,422.589z"
	/>
</svg>